<?xml version="1.0" encoding="utf-8"?>
<!-- Generator: Adobe Illustrator 16.0.0, SVG Export Plug-In . SVG Version: 6.00 Build 0)  -->
<!DOCTYPE svg PUBLIC "-//W3C//DTD SVG 1.1//EN" "http://www.w3.org/Graphics/SVG/1.1/DTD/svg11.dtd">
<svg version="1.1" id="Capa_1" xmlns="http://www.w3.org/2000/svg" xmlns:xlink="http://www.w3.org/1999/xlink" x="0px" y="0px"
	 width="612px" height="792px" viewBox="0 0 612 792" enable-background="new 0 0 612 792" xml:space="preserve">
<g>
	<g>
		<path fill="#393D3F" d="M50.519,218.462C21.651,218.462,0,196.812,0,167.943c0-28.869,21.651-51.962,50.519-51.962h509.519
			c28.867,0,51.962,23.094,51.962,51.962c0,28.868-23.095,50.519-51.962,50.519H50.519L50.519,218.462z"/>
		<path fill="#393D3F" d="M560.038,344.038C588.905,344.038,612,367.132,612,396s-23.095,50.519-51.962,50.519H50.519
			C21.651,446.519,0,424.868,0,396s21.651-51.962,50.519-51.962H560.038z"/>
		<path fill="#393D3F" d="M560.038,573.538c28.867,0,51.962,21.65,51.962,50.519c0,28.869-23.095,51.962-51.962,51.962H50.519
			C21.651,676.019,0,652.925,0,624.057c0-28.867,21.651-50.519,50.519-50.519H560.038z"/>
	</g>
</g>
</svg>
