<?xml version="1.0" standalone="no"?>
<!DOCTYPE svg PUBLIC "-//W3C//DTD SVG 20010904//EN"
 "http://www.w3.org/TR/2001/REC-SVG-20010904/DTD/svg10.dtd">
<svg version="1.0" xmlns="http://www.w3.org/2000/svg"
 width="700.000000pt" height="700.000000pt" viewBox="0 0 700.000000 700.000000"
 preserveAspectRatio="xMidYMid meet">
<metadata>
Created by potrace 1.11, written by Peter Selinger 2001-2013
</metadata>
<g transform="translate(0.000000,700.000000) scale(0.100000,-0.100000)"
fill="#000000" stroke="none">
<path d="M1385 5696 c-41 -18 -83 -69 -90 -109 -3 -18 -5 -258 -3 -534 3 -489
4 -502 24 -529 11 -15 33 -37 48 -48 27 -21 40 -21 719 -26 755 -5 713 -2 755
-62 16 -21 17 -167 22 -1820 5 -1795 5 -1797 26 -1824 11 -15 33 -37 48 -48
27 -21 38 -21 576 -21 538 0 549 0 576 21 15 11 37 33 48 48 21 27 21 29 26
1829 5 1657 6 1804 22 1825 42 60 0 57 755 62 679 5 692 5 719 26 15 11 37 33
48 48 20 27 21 40 23 529 l3 502 -28 40 c-15 22 -49 55 -76 73 l-48 32 -2082
0 c-1708 -1 -2086 -3 -2111 -14z m3798 -557 c52 -24 59 -87 15 -129 -21 -20
-32 -20 -825 -20 l-803 0 0 -1774 0 -1774 35 -26 c112 -86 90 -258 -40 -317
-51 -24 -99 -24 -150 0 -130 59 -152 231 -40 317 l35 26 0 1774 0 1774 -855 0
c-605 0 -861 3 -878 11 -52 24 -59 87 -15 129 22 20 28 20 1759 20 1253 0
1745 -3 1762 -11z"/>
</g>
</svg>
